<mxfile host="app.diagrams.net" modified="2022-12-09T09:57:28.575Z" agent="5.0 (Macintosh; Intel Mac OS X 10_14_3) AppleWebKit/537.36 (KHTML, like Gecko) Chrome/106.0.0.0 Safari/537.36" etag="iPWgZR262JsCHX3PY-NP" version="20.6.2" type="github">
  <diagram id="P8cxt1u0yZsi_ar38zyZ" name="Page-1">
    <mxGraphModel dx="1586" dy="1164" grid="1" gridSize="10" guides="1" tooltips="1" connect="1" arrows="1" fold="1" page="0" pageScale="1" pageWidth="827" pageHeight="1169" math="0" shadow="0">
      <root>
        <mxCell id="0" />
        <mxCell id="1" parent="0" />
        <mxCell id="wA6J-RVI7g01m252qov--1" value="" style="endArrow=none;dashed=1;html=1;" parent="1" edge="1">
          <mxGeometry width="50" height="50" relative="1" as="geometry">
            <mxPoint x="-320" y="230" as="sourcePoint" />
            <mxPoint x="380" y="230" as="targetPoint" />
          </mxGeometry>
        </mxCell>
        <mxCell id="fnuq2svT5DHU3OjpnR4J-1" value="Symphony&lt;br&gt;Adapter" style="rounded=1;whiteSpace=wrap;html=1;fillColor=#fff2cc;strokeColor=#d6b656;" parent="1" vertex="1">
          <mxGeometry x="-130" y="-40" width="120" height="60" as="geometry" />
        </mxCell>
        <mxCell id="fnuq2svT5DHU3OjpnR4J-2" value="&lt;font style=&quot;font-size: 18px&quot;&gt;SensePass设备登录注册&lt;/font&gt;" style="text;html=1;strokeColor=none;fillColor=none;align=center;verticalAlign=middle;whiteSpace=wrap;rounded=0;" parent="1" vertex="1">
          <mxGeometry x="-70" y="-200" width="280" height="20" as="geometry" />
        </mxCell>
        <mxCell id="fnuq2svT5DHU3OjpnR4J-3" value="Symphony&lt;br&gt;DeviceManager" style="rounded=1;whiteSpace=wrap;html=1;fillColor=#dae8fc;strokeColor=#6c8ebf;" parent="1" vertex="1">
          <mxGeometry x="-130" y="120" width="120" height="60" as="geometry" />
        </mxCell>
        <mxCell id="fnuq2svT5DHU3OjpnR4J-4" value="" style="endArrow=classic;html=1;exitX=0.5;exitY=1;exitDx=0;exitDy=0;entryX=0.5;entryY=0;entryDx=0;entryDy=0;" parent="1" source="fnuq2svT5DHU3OjpnR4J-1" target="fnuq2svT5DHU3OjpnR4J-3" edge="1">
          <mxGeometry width="50" height="50" relative="1" as="geometry">
            <mxPoint x="100" y="110" as="sourcePoint" />
            <mxPoint x="150" y="60" as="targetPoint" />
          </mxGeometry>
        </mxCell>
        <mxCell id="fnuq2svT5DHU3OjpnR4J-6" value="4、Symphony创建设备，&lt;br&gt;Company-Product-SN + PublicKey" style="text;html=1;resizable=0;points=[];align=center;verticalAlign=middle;labelBackgroundColor=#ffffff;" parent="fnuq2svT5DHU3OjpnR4J-4" vertex="1" connectable="0">
          <mxGeometry x="0.1167" y="3" relative="1" as="geometry">
            <mxPoint as="offset" />
          </mxGeometry>
        </mxCell>
        <mxCell id="fnuq2svT5DHU3OjpnR4J-5" value="POST&lt;br&gt;PATCH" style="text;html=1;strokeColor=none;fillColor=none;align=center;verticalAlign=middle;whiteSpace=wrap;rounded=0;" parent="1" vertex="1">
          <mxGeometry x="-60" y="30" width="40" height="20" as="geometry" />
        </mxCell>
        <mxCell id="fnuq2svT5DHU3OjpnR4J-8" value="" style="shape=image;verticalLabelPosition=bottom;labelBackgroundColor=#ffffff;verticalAlign=top;aspect=fixed;imageAspect=0;image=data:image/png,iVBORw0KGgoAAAANSUhEUgAAAFgAAACeCAYAAAC2JM2dAAASVklEQVR4Ae2d91NV2ZbH7d9m5qeZqvkDJvzQb2b8obtVDOScc5acJGeRKEEERMUcobvVNrQRUVFJpgYlqmAATID52doK2v0ES/1OrcW7Po9wHkJt7qtutlW7zt373LvOPp+z9krH2kzDR//ev3+Pt2/f4fXrQQwMvMTjx3/GrVt30Np6CTW1p7H/wGGUfbsDa9ZsQkHhSuTmFWFx9lJkLs7/3bes7Hxk5xRgSX4xipevxvoNW7F9xx5UVFTi7LkGtHdcRW/fXTx79gtevfoVb968wbt37z6iN/rHaR8Pv337FoODQ3j69Blu3+7BhQstfIFvv9vBF01Lz0FkZAJ8/cLg4uoDOwcPWNm4wNLa+Xff6D6sbV3h4OQFd09/BAZFIi4hFdk5hVizdhN27tqLquo6tF28jLt377ECDg0NfYxv1M8MmDSXngY9mSdPfkZHx1WcOFEDApuXX4yExDQEBUfC3cOPJ2FkYoO5uqaYqWOIb2bq4+sZer/7RvcxY5YBdOYYQ1ffAqbm9nBw9IS3TwjCI+KRmpaNFSvXMeizZ+tx48Yt1uaxNJkBazT34cPH6Oi4hkOHjqCwqATRMclwcfNl7TQ2tYWegSXmzjPlSdBk/ihwNQqigUyKM3uuMebpmcPAyJph2zt4wNcvFEnJGdi4qQwnT9aiq/vmmJrMgMnmvnjRz5pLNodsEGmsrb075uqa/aE0VQNzPMcZs/QZOK1cMo20otet34La2jO409OL/oGBUc0DDTLggYEB3L13H8dPVLPzCg2LgZmFA+bpSbj0IL6ZqffBfBgaWcPZZT6v7s1bvmMH+ODBI3XAFDVQtNDefgVl324HwbWxc8Os2Ua/e7s6Hi393O+S+dA3tGTI6Zm52LV7H65d78KQSlQxjcwDGeyamtPIX7qc4erqm//h7OvnAhzre2SndeYYwcTMDkEhUVhWvBrnfmrA8xcvMDg4OEKTp/X3D6Cl5SJ++GEv4hNS2bBPlvPSLDVaHXPmmfK1yMbPnmvCK4YcJ52j/ue2OXNNMGceNVOObOg4LG/yIhziQ/MmU5G8MAOHyo+ip7cP/QMvRwJ+9OgxqqpPoXj5Go79aHJjPcWJntc4CwNDS46fKea0tXOHhZUT9A2tGJKhsTXMLRw+u1lYOsLSyhnWNi68+qysXWBu6Qh9A0u2mxOd61i/I07WNq4IWxCL0rJtaG5uw+PHT0YCpoRi775DSF6YCVc330m1vWS/9PQtYGnlhPk+IQhdEAv/gHC4ewZwKEgOxM7eHZ5e/vD0CoCXdyC8vOkYwH0aG27D5z08h7/jPT+YQyiSRXLdPfxhYenE0c9YoCZ6nlaaiakdvOcHoWjZKhw/Xo2enr6RgK9d60Rp2XYEBEbAytp50idlbGLLoU5sXAoWZxfwg10QEf8h3qZYMy4+BQmJqUhKTkdSchoSk9K4n5CwCPEJKXyefh8bt/DDd2mpLkpdzGYuIjKely8lDRMFONbvWFkMLDgZSU3L4QSks6t7JOCLFy9j9ZqNcHTygoGRFWgZjyV8oufphk3N7FjDklOyUFBYgozMJYiJTQFpI0UvIaHRSEvPRmbWEq4NUK0ji2odWUuQkZmH9IxcUMpOmdWi1Gw+pmfkIGvxEuTkFnI/PmER3Dz8OHad6FzH+t2Mmfog+08mKio6CRs2lnIk9inhaU3NrShaVgIzC3t2FpPl4GjCtKwoM7Jz8ERoWCwSkzMQEZUIv4Bw2Dt68mTn+wRzjEmQSIM12kt90tqY2IWIiU1GdEwS3xjdHDUaj4tfhIjIBE6SKPPSmcRQkziRFhsZ2yAoOArLV6xFa9ulT/li2vnzTchbsgx6BhaT6hQIMEUJlH6amjvA1d0Pvv4L4O4ZyAUWSmyMjK15yfn4hsA/YAGDCgyKYPNFfT//MLa1dJ5srff8vzXq0zjZaMq2zMwdJtXc0f0QZPIpPr6hHOI2NbWOBNzQ0IjcvELM0zWb9NiXJkRaTIUiQ2MbzvGNTGw5ghgO14w5iKcYkwBRNGBu4chZJfWpAMPNzJ7jUHIyH5qZHZsfsvHkLOkak7kaNSZEV88c3j7BrKSNTS0jAdfXX0BObgGbB82P5PHzq4NUTvDyDuLaeGOjBCzcgY8bMC0rspVkwGVTY2DAjIjVuAAT2OGCsznIln2wbx/buin+meriFAlRvYb8ybgAD//AnB0L5dlu7n4cn/4tg9JkUlPvSHG6h6c/XN18ONskp0uOdFyAqVBCRWV6J0UxJwX2hUUruQBPRfip3OgNT17+Mk5kqKRLCkiaPC7ApPaUmVABg/Lr77ftwrHKk/yyj174TeVWebwKBw5WYGvZNlY8iskpZBwXYEo2rG2cOb+naj0B7eq6wUUMKmRM5dZ94yZnakcrT6KoeBWCQ6I4Th8XYKrU29q5ctFkz48HcPnyFfzlL69HBM9TcYCK6fTmp7mljf/PxILwOK4ASsCCtEECFgRSTYwErEZG0LgELAikmhgJWI2MoHEJWBBINTESsBoZQeMSsCCQamIkYDUygsYlYEEg1cRIwGpkBI1LwIJAqomRgNXICBqXgAWBVBMjAauRETQuAQsCqSZGAlYjI2hcAhYEUk2MBKxGRtC4BCwIpJoYCViNjKBxCVgQSDUxErAaGUHjErAgkGpiJGA1MoLGJWBBINXESMBqZASNS8CCQKqJkYDVyAgal4AFgVQTIwGrkRE0LgELAqkmRgJWIyNoXAIWBFJNjASsRkbQuAQsCKSaGAlYjYygcQlYEEg1MRKwGhlB4xKwIJBqYiRgNTKCxiVgQSDVxEjAamQEjUvAgkCqiZGA1cgIGpeABYFUEyMBq5ERNC4BCwKpJmbCgE+fPscba9JGl3JDDjW84N2tJ7Qhx5o16xASGsVbVEnAkwA4KCgYNrZOvNO+voGF3FJGhfGETcRXX32FP/3PdPzHf32JmbN0YWPrIvfsGQXyhAF/8cUX+Kd//hf867/9O/5v+te86xTtJC03RVJSnjDg6dOn48sv/xf/+d9/wkwdPanBSq4fehMG7OHhCXMLW95aXDq5DzxHfJgw4BUrShAUHC6jiBFIlQMTBnzuXAP/0T36Yx9Sg5VQP+5NGPDHO2BLwB8jVX6WgJU8hPckYOFIlQIlYCUP4T0JWDhSpUAJWMlDeE8CFo5UKVACVvIQ3pOAhSNVCpSAlTyE9yRg4UiVAiVgJQ/hPQlYOFKlQAlYyUN4TwIWjlQpUAJW8hDek4CFI1UKlICVPIT3JGDhSJUCJWAlD+E9CVg4UqVACVjJQ3hPAhaOVClQAlbyEN6TgIUjVQqUgJU8hPckYOFIlQIlYCUP4T0JWDhSpUAJWMlDeE8CFo5UKVACVvIQ3pOAhSNVCpSAlTyE9yRg4UiVAiVgJQ/hPQlYOFKlQAlYyUN4TwIWjlQpUAJW8hDek4CFI1UKlICVPIT3JGDhSJUCJWAlD+E9CVg4UqVACVjJQ3hPAhaOVClQAlbyEN6TgIUjVQqUgJU8hPckYOFIlQKFAk5ZlIVdu/ejre0yBgZe4s2bN1O+vXr1K+7ff4ALF5qxbv0WLAiPg6W1M+bpmcHLOwi5eUVobGxRPhUA00bbsyclJRM7d+5FU1Mbnj37Bb/++tuUb7/88gI9PX34qf4C1q7bPDHAuvrmsLB0RHhEHFasXIe9ew+hvr4Rzc1tU741NDShqvoUK97i7KXw8Q2FqZn9+DSYtvYyMraGp1cAEhLTkL90OTZuLMPWrd9P+bZpUxlKVm1ATm4hwsLj4ODkBX1Dq/EBnjXbEHN1TVmL3dz94B8QjoiIBERFJ2mtxcQuRHxCKm9QmrU4H7m5RcjPX468JcuQm1uIjIw8kAmj72hzXhGRCQgNi4GvXxgcHD1hbGoHUshx2eBvZupjxkx93gVw9lwTzNU1A5kNXX0LrTQ9A0sYm9rCysYZnl6BCA2LRUxsCpIXZiIhMRUxsckIDAyHq5sPOxg9A+3Ma/j+zTFPz5wVUGeOMWbqGIJ4jQm4oaERuXmFDJN+8PUMPa03uu4sHUPM0zVjcGSiSJPJMxcvX81OpWTVeiwrXoW09GxERMbD1c0XBkbWrEX/iDlrrqmrZw5vn2BeYY1No0QR58838Ul6SjNmGWgdLk10xix91gxTc3v4+oWCwsS1azdh//5yVFaeRF3daVRV1eDYsePYtn0nVqxci9i4FDg6e8PIxJY1SXPD2jySYtAq8vENQf7SYjQ1tY4M02iwaFkJ6OZoH/d/hBbPmm0EYxNbuLj6MNzNm8tQfvgI6uvPo6WlFZcvt6Ot7SKam1tQU1OHAwfKsXzFGrbBBFmzXLUNl65rZGKDoJBInk9r26WRgNsuXsaq1RvYcBsYWrEN1vZE6cHa2LkhJDQaa9dtQm1tHYPt6urGjRs3cPPmTT52d3ejvaMDzc3N2LvvIIqXr0JgcCTIX2h79dGqo+uaWzoiMjoR6zZsxeX2KyMBX73WidKybQgIDGf7N1NHe2aCVguBIUdKNpVCwx927sHFi5fQ2dmJO3fujGgE/Pr166iursW33+1AbNxCkHOkVaBNxSBOZB7sHT2xKC0bO3b+iM7O7pGAb9/u4YQiKTkDLm6+Wp0oO7fZhjAwssJ83xBkZi1B+eGjrK23bt0aAZeA3759G3SOzMeBgxVITc+GiRmFTKZaNW9s1kxt4ekdiMKilThWWYU7Pb0jAT98+BhVVXUoLl6DwKAIVntt2eFhwEYwNLZm55adsxRHjlYyRAI5mgZrIJ+/0IjDFceQkZnL/oPid23Nm1bK7LnGsLJ2RmhoDLZs/Z4d3KPHfx4J+MWLfk6Dd+zYg7j4RRzraWuidB1yFBoNzspagsMVR9nmqgHWaHBDw3kcKq/gsM3E1JbDNW3NmwDTinF09kJiUhoOHqpAT08v+vsHRgJ+/fo1urtvcZ69JL+YnQ2HbFqIiQnIsA22AGWOScnp2L17L9rbO9DV1TWqBpPDo3O1daewfccuxCcsgoGhJXTmGOEbLcTwNGeNeQgIimDzcPZsPZ4/f47XrwdHAn737h1ItckDlpZtR3BINKxtXUFpszacBk2YvLGtnRvCFsRg46ZSnD33E0MezUR0dnahvb0d5eVHsLJkHYJDoni5akt7acWRc3Nw8kRK6mJs37EHV69e53Iusfz03zQa6B8YwN2791F5vApLC1YgJCwG5haObC60EWPSw6TKlIdXABdTdu/Zh5raUxxNUAzc0XGFgV+63I6GhgscQVCsnLIokzVfGyEaXYNWCZkzir0joxKxfkMpTp0+h3v3H3zK9UOfAZNqky1ub7/KjoNS0oDACDYXVI+Y7BsYNhPmXIOgggqlyKWl36Oi4hhOnKxBXd0ZVNfU4cSJauz5cT82bS5Dalo2vOcHcRw62dpL8qn+YEhwnTw5i1y9ZiOqqutAUdhotldDmAG/ffsWg4NDePDwEUM+eOgICgpXIjommeNTKxsXrh7RJvoEnC5GUETdmOYGSD6VAYOCI5GWlo2SknXYuLGU490tW7/Dho1bsbRgOZIXZnDUQauMYmiR86D7olVLUQIVd6jeQVmunYMHp8RUdKI3GpWVVbh+vQv9/f3MTgP00yMDfv/+Pch+0GuRJ09+RnvHVRw/UcM2meqfFF2QQXd19wPBNjK2YS8q0nzQjZHzIMgWVk5w8/BDcEgkomOS2PnRHKg86ecfBidnL5hRaj/PhGGI8BX0kGgOpDz00Ci2trN356oemczklEwuNm3bvgv0J+K6u2/i6dNnqrZXA5oBazoaTf7556e4efM2qNJ2qPwoSku3oWjZKqSl5SAyMoFvkpISymIoxbW2cRHTbF1ha+/ODsTD05+vQyYjKjoR4RHxCAmNYS2imgXVZIVdl+b/12uTffXwDOCcgApKVJOmSh6BJR/V3NKGnt4+1tyhoSENOtWjAjBp8tu37zjcePnyFegP1N26fQetrZdQXXMK+/aXM2yqXdDbjsU5BcjIzEN6Rq6wRvIoo6Okg2wxVakKClewaaDPVHSnm6bvCL8uFfjzilBUVMIlUoJ6+PAxnDlbj/b2K+jtvcvvKGmlDw294VWvSvavJxSAP/0yaTQ5QHrx2dvbhytXrvFb1bq6s2yDDldUguw1pay/90b3Qav1yJHjOHmyFmfO/ISWlotcX7h//yEHAZ+jsZ8y/LuAhzWaHOAgXr16hefPX+DJk6d49Ogxv8Km0K6v7x76+u7+Ado99N29h3v37uPBg4e8esnGkhP77bffQHBHi3M/Bfpp/+8C/vTLsj9+Av8PPMVvTpegJloAAAAASUVORK5CYII=;" parent="1" vertex="1">
          <mxGeometry x="200" y="345" width="28" height="50" as="geometry" />
        </mxCell>
        <mxCell id="fnuq2svT5DHU3OjpnR4J-11" value="Symphony&lt;br&gt;IoT SDK android" style="rounded=1;whiteSpace=wrap;html=1;fillColor=#dae8fc;strokeColor=#6c8ebf;" parent="1" vertex="1">
          <mxGeometry x="10" y="340" width="120" height="60" as="geometry" />
        </mxCell>
        <mxCell id="fnuq2svT5DHU3OjpnR4J-12" value="SenseBI&lt;br&gt;&amp;nbsp;Adapter" style="rounded=1;whiteSpace=wrap;html=1;fillColor=#fff2cc;strokeColor=#d6b656;" parent="1" vertex="1">
          <mxGeometry x="180" y="-40" width="120" height="60" as="geometry" />
        </mxCell>
        <mxCell id="fnuq2svT5DHU3OjpnR4J-13" value="Symphony&lt;br&gt;Atom-Service" style="rounded=1;whiteSpace=wrap;html=1;fillColor=#dae8fc;strokeColor=#6c8ebf;" parent="1" vertex="1">
          <mxGeometry x="25" y="120" width="120" height="60" as="geometry" />
        </mxCell>
        <mxCell id="fnuq2svT5DHU3OjpnR4J-14" value="" style="endArrow=classic;html=1;entryX=0.25;entryY=1;entryDx=0;entryDy=0;" parent="1" target="fnuq2svT5DHU3OjpnR4J-12" edge="1">
          <mxGeometry width="50" height="50" relative="1" as="geometry">
            <mxPoint x="210" y="340" as="sourcePoint" />
            <mxPoint x="300" y="295" as="targetPoint" />
          </mxGeometry>
        </mxCell>
        <mxCell id="fnuq2svT5DHU3OjpnR4J-15" value="1、SenseLink&lt;br&gt;登录/注册流程" style="text;html=1;resizable=0;points=[];align=center;verticalAlign=middle;labelBackgroundColor=#ffffff;" parent="fnuq2svT5DHU3OjpnR4J-14" vertex="1" connectable="0">
          <mxGeometry x="0.0813" y="4" relative="1" as="geometry">
            <mxPoint x="-6" y="93" as="offset" />
          </mxGeometry>
        </mxCell>
        <mxCell id="fnuq2svT5DHU3OjpnR4J-16" value="" style="endArrow=classic;html=1;exitX=0;exitY=0.5;exitDx=0;exitDy=0;entryX=1;entryY=0.5;entryDx=0;entryDy=0;" parent="1" source="fnuq2svT5DHU3OjpnR4J-12" target="fnuq2svT5DHU3OjpnR4J-1" edge="1">
          <mxGeometry width="50" height="50" relative="1" as="geometry">
            <mxPoint x="100" y="-10" as="sourcePoint" />
            <mxPoint x="100" y="90" as="targetPoint" />
          </mxGeometry>
        </mxCell>
        <mxCell id="fnuq2svT5DHU3OjpnR4J-17" value="2、创建SenseBI设备" style="text;html=1;resizable=0;points=[];align=center;verticalAlign=middle;labelBackgroundColor=#ffffff;" parent="fnuq2svT5DHU3OjpnR4J-16" vertex="1" connectable="0">
          <mxGeometry x="0.1167" y="3" relative="1" as="geometry">
            <mxPoint x="11" y="-23" as="offset" />
          </mxGeometry>
        </mxCell>
        <mxCell id="fnuq2svT5DHU3OjpnR4J-18" value="" style="curved=1;endArrow=classic;html=1;exitX=0;exitY=0.1;exitDx=0;exitDy=0;exitPerimeter=0;entryX=0;entryY=0.75;entryDx=0;entryDy=0;" parent="1" source="fnuq2svT5DHU3OjpnR4J-1" target="fnuq2svT5DHU3OjpnR4J-1" edge="1">
          <mxGeometry width="50" height="50" relative="1" as="geometry">
            <mxPoint x="360" y="100" as="sourcePoint" />
            <mxPoint x="-140" y="10" as="targetPoint" />
            <Array as="points">
              <mxPoint x="-180" y="-30" />
              <mxPoint x="-180" y="10" />
            </Array>
          </mxGeometry>
        </mxCell>
        <mxCell id="fnuq2svT5DHU3OjpnR4J-22" value="3、产生公私钥" style="text;html=1;resizable=0;points=[];align=center;verticalAlign=middle;labelBackgroundColor=#ffffff;" parent="fnuq2svT5DHU3OjpnR4J-18" vertex="1" connectable="0">
          <mxGeometry x="-0.3014" y="11" relative="1" as="geometry">
            <mxPoint x="-42" y="9" as="offset" />
          </mxGeometry>
        </mxCell>
        <mxCell id="fnuq2svT5DHU3OjpnR4J-23" value="" style="endArrow=classic;html=1;entryX=0.75;entryY=1;entryDx=0;entryDy=0;exitX=1;exitY=0.5;exitDx=0;exitDy=0;" parent="1" source="fnuq2svT5DHU3OjpnR4J-8" target="fnuq2svT5DHU3OjpnR4J-12" edge="1">
          <mxGeometry width="50" height="50" relative="1" as="geometry">
            <mxPoint x="270" y="340" as="sourcePoint" />
            <mxPoint x="270" y="20" as="targetPoint" />
            <Array as="points">
              <mxPoint x="270" y="370" />
            </Array>
          </mxGeometry>
        </mxCell>
        <mxCell id="fnuq2svT5DHU3OjpnR4J-24" value="5、获取Symphony私钥" style="text;html=1;resizable=0;points=[];align=center;verticalAlign=middle;labelBackgroundColor=#ffffff;" parent="fnuq2svT5DHU3OjpnR4J-23" vertex="1" connectable="0">
          <mxGeometry x="0.0813" y="4" relative="1" as="geometry">
            <mxPoint x="24" y="-100" as="offset" />
          </mxGeometry>
        </mxCell>
        <mxCell id="fnuq2svT5DHU3OjpnR4J-25" value="" style="endArrow=classic;html=1;exitX=0;exitY=0.5;exitDx=0;exitDy=0;entryX=1;entryY=0.5;entryDx=0;entryDy=0;" parent="1" source="fnuq2svT5DHU3OjpnR4J-8" edge="1">
          <mxGeometry width="50" height="50" relative="1" as="geometry">
            <mxPoint x="320" y="370" as="sourcePoint" />
            <mxPoint x="130" y="370" as="targetPoint" />
          </mxGeometry>
        </mxCell>
        <mxCell id="fnuq2svT5DHU3OjpnR4J-26" value="6、IoT SDK配置私钥" style="text;html=1;resizable=0;points=[];align=center;verticalAlign=middle;labelBackgroundColor=#ffffff;" parent="fnuq2svT5DHU3OjpnR4J-25" vertex="1" connectable="0">
          <mxGeometry x="0.1167" y="3" relative="1" as="geometry">
            <mxPoint x="-1" y="37" as="offset" />
          </mxGeometry>
        </mxCell>
        <mxCell id="fnuq2svT5DHU3OjpnR4J-27" value="" style="endArrow=classic;startArrow=classic;html=1;entryX=0.5;entryY=1;entryDx=0;entryDy=0;exitX=0.625;exitY=0;exitDx=0;exitDy=0;exitPerimeter=0;" parent="1" source="fnuq2svT5DHU3OjpnR4J-11" target="fnuq2svT5DHU3OjpnR4J-13" edge="1">
          <mxGeometry width="50" height="50" relative="1" as="geometry">
            <mxPoint x="80" y="290" as="sourcePoint" />
            <mxPoint x="130" y="240" as="targetPoint" />
          </mxGeometry>
        </mxCell>
        <mxCell id="fnuq2svT5DHU3OjpnR4J-28" value="7、建立连接" style="text;html=1;resizable=0;points=[];align=center;verticalAlign=middle;labelBackgroundColor=#ffffff;" parent="fnuq2svT5DHU3OjpnR4J-27" vertex="1" connectable="0">
          <mxGeometry x="0.225" y="1" relative="1" as="geometry">
            <mxPoint x="-44" y="8" as="offset" />
          </mxGeometry>
        </mxCell>
        <mxCell id="wA6J-RVI7g01m252qov--2" value="&lt;font style=&quot;font-size: 18px&quot;&gt;云&lt;/font&gt;" style="text;html=1;strokeColor=none;fillColor=none;align=center;verticalAlign=middle;whiteSpace=wrap;rounded=0;" parent="1" vertex="1">
          <mxGeometry x="-310" y="90" width="40" height="20" as="geometry" />
        </mxCell>
        <mxCell id="wA6J-RVI7g01m252qov--5" value="&lt;font style=&quot;font-size: 18px&quot;&gt;边&lt;/font&gt;" style="text;html=1;strokeColor=none;fillColor=none;align=center;verticalAlign=middle;whiteSpace=wrap;rounded=0;" parent="1" vertex="1">
          <mxGeometry x="-310" y="300" width="40" height="20" as="geometry" />
        </mxCell>
        <mxCell id="8lmtFTj3F2pUfcIFxhat-1" value="Studio 业务层&lt;br&gt;设备管理服务&lt;br&gt;是否需要" style="rounded=1;whiteSpace=wrap;html=1;fillColor=#fff2cc;strokeColor=#d6b656;" parent="1" vertex="1">
          <mxGeometry x="20" y="-130" width="120" height="60" as="geometry" />
        </mxCell>
      </root>
    </mxGraphModel>
  </diagram>
</mxfile>
